<svg xmlns="http://www.w3.org/2000/svg" width="155" height="216" viewBox="0 0 155 216" fill="none"><g clip-path="url(#clip0_2582_7884)"><path d="M 72.1 170.149 L 135.116 202.993 L 147.242 0 L 7.871 0 L 7.871 199.013 L 77.698 169.179" fill="white" style=""></path><path d="M107.5 171C107.5 170.9 107.5 170.8 107.4 170.7C107.3 170.7 107.1 170.7 107 170.6C107 170.6 106.5 172.2 106.5 172.3C106.5 172.4 106.6 172.5 106.6 172.6C106.6 172.7 106.6 172.8 106.6 172.9C106.6 173 106.6 173.1 106.6 173.1V173.2C106.6 173.2 106.6 173.2 106.7 173.3C106.7 173.4 106.8 173.4 106.8 173.5H107.5C107.5 173.4 107.6 173.4 107.6 173.3C107.6 173.1 107.6 172.9 107.6 172.8C107.6 172.7 107.7 172.6 107.7 172.5C107.7 172.4 107.7 172.2 107.7 172.1C107.7 171.9 107.8 171.7 107.8 171.5C107.7 171.3 107.6 171.1 107.5 171ZM0 0V215.6L78.7 173.6H78.8H101.8C101.9 173.6 101.9 173.5 102 173.5C102.3 173.4 102.5 173.4 102.8 173.3C103 173.3 103.2 173.2 103.4 173.2C103.6 173.2 103.8 173.4 104 173.3C104.2 173.3 104.4 173.2 104.6 173.2C104.7 173.2 104.9 173.2 105 173.2C105.1 173.1 105.1 173.1 105.1 173C105.2 172.8 105.4 172.6 105.5 172.4C105.6 171.8 105.8 171.1 105.8 170.5C105.8 170.4 105.8 170.2 105.6 170.1C105.5 170.1 105.5 170.2 105.4 170.2C105.3 170.2 105.3 170.2 105.2 170.1C105 170 105 170 105 169.8C105 169.7 104.9 169.5 104.9 169.4C104.7 169.6 104.8 169.8 104.4 169.6C104.2 169.5 104.3 169.5 104.2 169.4C104.2 169.3 104.1 169.2 104.1 169.1C104 169.1 104 169.2 103.9 169.2C103.8 169.2 103.8 169.2 103.7 169.2C103.6 169.2 103.4 169.3 103.4 169.4C103.2 169.2 103.5 168.9 103.5 168.7C103.5 168.6 103.5 168.5 103.4 168.4C103.2 168.4 103.2 168.6 103.1 168.6C103.1 168.5 103.1 168.3 103.2 168.2C103 168.2 102.7 168.3 102.6 168.2C102.5 168.1 102.7 167.8 102.8 167.7C102.9 167.5 102.8 167.4 102.7 167.2C102.4 166.7 102.2 166.1 101.8 165.7C101.5 165.4 101 165.2 100.7 165C100.3 164.7 100.1 164.2 99.7 163.9C99.3 163.6 98.7 163.4 98.3 163.1C97.5 162.4 97 161.4 97 160.4C97 159.8 97.2 159.3 97.4 158.7C97.6 157.9 97.6 157 98 156.3C98.4 155.6 98.9 155 99.3 154.4C99.6 154 99.8 153.5 100 153C100.1 152.7 100.5 152.2 100.5 151.8C100.3 152 100 152 99.7 151.9C99.1 151.7 99.2 151.4 99.1 151C99.1 150.9 99 150.7 99 150.6C99 150.4 99.2 150.3 99.2 150.1C99.2 150 99.2 149.9 99.3 149.8C99.4 149.7 99.5 149.7 99.4 149.6C99.3 149.5 99.1 149.6 99 149.7C98.9 149.7 98.8 149.7 98.6 149.7C98.5 149.7 98.4 149.6 98.3 149.6C98.1 149.6 97.9 149.7 97.9 149.8C97.8 149.7 97.9 149.5 98 149.4C98.2 149.2 98.4 149.1 98.6 149C98.2 148.9 98.2 148.5 98.2 148.1C98.2 148 98.3 147.8 98.4 147.7C98.5 147.6 98.7 147.4 98.7 147.3C98.7 147.2 98.7 147.1 98.9 147.1C98.9 147.2 98.9 147.2 99 147.2C99 147.2 99.2 147.3 99.2 147.2C99.2 147.1 99.1 147 99.2 146.9C99.3 146.8 99.3 146.7 99.3 146.6C99.3 146.5 99.3 146.4 99.4 146.4C99.4 146.4 99.6 147.2 99.8 147.1C99.9 147 99.7 146.7 99.7 146.6C99.7 146.5 99.7 146.2 99.8 146.1C99.9 145.9 100 146.3 100.1 146.4C100.1 146.6 100.2 146.8 100.4 146.9C100.5 147 100.6 146.8 100.6 146.7C100.6 146.6 100.7 145.7 100.9 145.7C101 145.8 101 145.9 101 146C101 146 101.2 146.6 101.1 146.6C101.2 146.6 101.2 146.4 101.2 146.3C101.2 146.2 101.2 146 101.2 145.9C101.3 145.8 101.4 146 101.5 146C101.5 146.1 101.6 146.3 101.7 146.2C101.8 146.2 101.8 146 101.8 146C101.8 145.9 101.8 145.8 101.9 145.6C102.1 145.6 102.2 145.9 102.2 146V146.3C102.4 146.3 102.5 146.1 102.8 146.2C102.9 146.3 103 146.4 103 146.5C103 146.6 102.9 146.6 102.9 146.7C102.9 146.8 102.9 146.8 102.9 146.9C102.8 147.2 102.5 147.3 102.2 147.4C102.1 147.4 101.9 147.5 101.9 147.6C101.9 147.7 102.1 147.7 102.1 147.8C102.2 147.9 102.3 147.9 102.4 148C102.9 148.3 103.5 148.3 104 148.6C104.5 148.9 104.8 149.2 105.1 149.6C105.5 150.1 105.8 150.7 106 151.3C106.3 152 106.5 152.6 106.6 153.3C106.6 154.1 106.5 154.9 106.7 155.8C106.8 156.4 107.1 156.9 107.5 157.3C108.2 158.1 109.2 158.2 110.3 158.5C110.4 158.5 111.5 159 111.5 159C111.6 158.9 111.8 158.8 111.9 158.8C111.9 158.8 112 158.3 112 158.2C112 158 111.9 157.7 111.9 157.5C111.9 156.8 111.9 156.1 112.2 155.4C112.4 155 112.5 154.5 112.9 154.1C113.1 153.9 113.3 153.7 113.5 153.6C113.7 153.5 113.7 153.3 113.9 153.2C114.2 152.8 114.6 152.6 115.1 152.3C115.5 152.1 115.9 151.9 116.3 151.8C116.6 151.7 116.8 151.7 117.1 151.6C117.4 151.5 117.5 151.5 117.8 151.6C117.6 151.6 117.4 151.7 117.2 151.8C117 151.9 116.8 151.9 116.7 152C116.6 152.1 116.5 152.2 116.3 152.2C116.2 152.2 116.2 152.2 116.1 152.2C116 152.2 116 152.3 115.9 152.4C115.8 152.5 115.5 152.6 115.4 152.6C115.7 152.6 116 152.6 116.3 152.6C116.2 152.7 115.6 152.9 115.6 153C115.7 153 115.8 153 115.8 152.9C115.9 152.9 116 152.8 116 152.8C116 153.1 115.8 153.2 115.6 153.4C115.4 153.6 115.2 153.6 115.1 153.9C115.1 154.1 115.1 154.3 115 154.5C114.7 154.9 114.1 155 113.9 155.4C114.2 155.3 114.4 155.1 114.6 154.9C114.8 154.7 115 154.6 115.3 154.4C115.3 154.5 115.2 154.6 115.2 154.7C115.2 154.8 115.2 154.9 115.2 154.9C115.2 155.1 115 155.3 114.7 155.3C114.7 155.5 114.7 155.7 114.7 155.8C114.7 156 114.6 156.2 114.6 156.4C114.8 156.3 114.9 156.3 115.1 156.3C115.1 156.1 115 155.9 115.1 155.7C115.1 155.6 115.3 155.5 115.4 155.4C115.5 155.3 115.6 155.1 115.6 155C115.7 154.8 115.8 154.5 116 154.3C116.1 154.3 116.1 154.3 116.2 154.4C116.3 154.4 116.3 154.4 116.4 154.3C116.5 154.2 116.7 154.2 116.9 154.2C116.9 154.3 116.8 154.4 116.8 154.5C116.8 154.6 116.9 154.7 116.9 154.8C116.9 154.9 116.7 155.1 116.6 155.2C116.5 155.4 116.6 155.5 116.6 155.6C116.6 155.8 116.5 155.9 116.4 156.1C116.3 156.2 116.1 156.6 116.1 156.7C116.2 156.5 116.5 156.3 116.7 156.1C116.8 156 117 155.9 117.1 155.8C117.3 155.6 117.3 155.6 117.6 155.6C117.6 155.7 117.5 155.8 117.5 155.8C117.6 155.8 117.7 155.6 117.9 155.6C117.9 155.7 118 155.9 118 156C117.9 156.1 117.8 156.2 117.7 156.3C117.5 156.4 117.4 156.4 117.2 156.5C117.1 156.6 117 156.7 116.9 156.8C117.1 156.8 117.3 156.7 117.5 156.6C117.7 156.5 117.9 156.4 118 156.4C117.9 156.5 117.8 156.6 117.7 156.7C117.6 156.8 117.5 156.8 117.5 156.9C117.4 157 117.3 157.2 117.2 157.3C117.1 157.4 116.9 157.5 116.7 157.7C116.6 157.8 116.4 158 116.4 158.1C116.4 158.2 116.5 158.1 116.5 158.2C116.5 158.3 116.5 158.4 116.5 158.4C116.4 158.5 116.2 158.7 116.2 158.7C116.5 158.6 116.7 158.6 117.1 158.6C117.3 158.6 117.5 158.6 117.7 158.7C117.8 158.7 117.9 158.8 118 158.8C118.1 158.8 118.2 158.7 118.4 158.7C118.7 158.7 118.7 158.9 118.7 159.1C118.7 159.2 118.4 159.6 118.8 159.5C118.8 159.7 118.7 159.8 118.6 160C118.5 160.2 118.3 160.2 118.2 160.3C118.5 160.4 118.9 160.4 119.1 160.7C119.3 160.9 119.2 161.3 119.1 161.5C118.9 161.7 118.4 161.6 118.1 161.8C118 161.9 117.9 162 117.8 162.1C117.6 162.2 117.3 162.3 117.1 162.4C117.3 162.7 117 162.8 117 163.1C117 163.2 117.1 163.3 117 163.4C116.9 163.5 116.8 163.6 116.6 163.6C116.6 163.7 116.6 163.7 116.7 163.8C116.5 163.8 116.3 163.8 116.2 164C116.5 164.3 116.2 164.5 115.8 164.7C115.6 164.8 115.2 164.7 115 164.9C115.1 164.9 115.4 165 115.5 165C115.2 165.2 114.9 165.3 114.5 165.2C114.2 165.2 113.7 165.2 113.3 165.3C113.5 165.4 113.8 165.5 114 165.6C114.3 165.8 114.2 165.9 114.1 166.1C113.9 166.1 113.9 165.9 113.7 166C113.7 166.1 113.7 166.2 113.7 166.3C113.9 166.4 114.3 166.6 114.1 166.8C114 166.9 113.8 166.9 113.6 166.9C113.4 167 113.6 167.3 113.5 167.4C113.4 167.4 113.2 167.5 113.1 167.5C112.9 167.5 112.8 167.4 112.6 167.4C112.6 167.6 112.4 167.7 112.3 167.9C112.2 168 112.2 168 112.1 168C111.9 168 111.8 168 111.6 168C111.5 168 111.3 167.9 111.2 168C111.1 168 111.1 168.1 111.1 168.1C111 168.2 111 168.2 110.9 168.3C110.6 168.4 110.2 168.5 109.9 168.5C109.7 168.5 109.7 168.5 109.6 168.6C109.5 168.7 109.5 168.7 109.6 168.8C109.9 169.3 109.7 169.7 109.2 170C109.2 170.2 109.4 170.3 109.3 170.5C109.2 170.9 109 171.2 109 171.6C109 171.9 109 172.2 108.9 172.5C108.9 172.6 108.9 172.8 108.9 172.9C108.9 173 109 173.2 109 173.3C109 173.4 109 173.5 109 173.6H139.6L86.4 177.8L154.7 215.6V0H0ZM101.9 173.5H102C102 173.5 102 173.5 101.9 173.5Z" fill="#001C78" style=""></path><path d="M29.0002 84.9C36.1002 79.4 42.8002 77.9 45.9002 77.6C49.1002 77.3 50.2002 79.1 50.2002 79.1C50.2002 79.1 51.8002 77.7 52.0002 76.3C52.3002 74.9 51.5002 72.1 47.4002 71.4C42.4002 70.4 34.2002 72.7 25.3002 78.9C16.4002 85.1 11.4002 93.9 11.6002 100C11.9002 106.2 16.7002 109.9 23.6002 114.3C30.2002 118.5 32.3002 121.2 32.0002 125.7C31.6002 130.6 28.3002 135 23.1002 137.9C18.9002 140.3 13.7002 140.9 10.4002 139.9C6.20024 138.6 5.50024 134.5 5.50024 134.6C4.80024 136.4 5.00024 139.3 7.30024 141.5C12.0002 145.9 20.4002 144.3 24.3002 142.4C29.0002 140.1 33.8002 135.7 35.3002 129.4C36.6002 124.5 35.4002 120.7 32.5002 117.5C31.0002 115.7 28.8002 114.2 26.8002 112.8C22.4002 109.8 18.2002 106.3 18.1002 101.2C18.0002 96 22.1002 90.3 29.0002 84.9ZM106.8 110.6C110.4 111.6 113.1 106.3 113.1 106.3C112 107.4 110.6 108.3 109.4 108.3C108.2 108.3 107.5 107.8 107.5 105.3C107.3 98.1 111.7 82.5 115.1 74.5C118.5 66.5 117.5 65.9 116.9 65.6C113.9 64.7 107 81.5 104.6 92.4C102.2 103.5 103.2 109.6 106.8 110.6ZM78.4002 110C80.1002 100.8 80.9002 94.8 78.5002 94.5C78.5002 94.5 79.5002 91.4 76.5002 91.1C73.5002 90.7 68.3002 93.8 64.4002 103.1C63.6002 105 63.0002 107.1 62.7002 109.2C57.4002 119 54.5002 121.1 52.7002 120.8C51.2002 120.6 49.9002 118.2 50.5002 112.6C53.8002 112.3 59.6002 107.1 60.9002 101.8C62.1002 96.8 60.6002 94 57.7002 93.9C52.0002 94 47.7002 103 46.5002 109.6C45.5002 114.8 45.6002 123.3 51.9002 123.5C59.2002 123.7 62.5002 111.6 62.5002 111.6C62.5002 111.6 62.5002 111.4 62.6002 111.1C62.5002 114.5 63.4002 117.4 66.2002 117.9C69.4002 118.2 73.1002 113.9 74.4002 110.7C74.5002 110.8 72.2002 123.9 68.0002 130.4C65.0002 135.7 59.9002 138 57.3002 137.5C57.4002 137.6 58.7002 138.5 60.9002 138.1C63.0002 137.7 65.3002 137 67.8002 134.4C72.3002 129.7 75.9002 123.1 78.4002 110ZM51.4002 107.9C53.5002 99 56.1002 95.9 57.3002 96.2C58.5002 96.4 58.3002 99.9 56.7002 103.9C55.0002 109.2 51.9002 111 50.6002 111.6C50.8002 110.5 51.0002 109.3 51.4002 107.9ZM68.3002 114.4C67.2002 114.1 66.2002 111 69.1002 103.8C73.0002 94.6 77.2002 95.1 77.2002 95.1C77.2002 95.1 76.8002 99.2 75.4002 104.2C72.8002 112.4 69.4002 114.8 68.3002 114.4ZM119.4 106.2C118 105.9 116.5 104.2 118.2 96.8C121.5 96.5 126.4 93.6 129.2 88.8C131.3 85.3 132.5 79.6 128.5 76.9C123 73.5 116 83.1 113.7 94.7C112.2 103.6 115 107.1 117.7 108.3C120.6 109.5 124.3 107.9 127.1 104.7C130.4 100.9 133.4 94.9 133.3 93.4C125.8 105.3 120.9 106.6 119.4 106.2ZM118.9 93.9C121.8 84 126.5 79.1 127.4 79.7C128.3 80.3 127.4 84.2 125.5 88.3C123.2 93.6 119.8 95.4 118.3 96C118.5 95.3 118.7 94.6 118.9 93.9ZM148.5 70.9C147 70.6 143.7 71 140.1 73.4C136.5 75.7 134.7 78.7 134.1 82.1C133.5 85.6 135.7 88.6 136.9 90.1C137.8 91.3 140.4 93.7 140.9 95.5C141.5 97.3 140.7 99.8 138.3 101.7C136.3 103.3 133.8 103.2 132.8 102.6C131.7 101.9 131.5 101 131.4 101C130.8 102.6 130.6 105.7 134.1 106.5C137.6 107.3 142.6 104.2 143.9 100.5C145.2 96.7 143.5 94.3 141.1 91.7C138.7 89.1 137.3 86.7 137.9 84C139.2 77.1 146.8 75.8 148.2 75.4C150 74.8 150.2 73.1 150.2 73.1C150.3 72.3 149.9 71.1 148.5 70.9ZM107 115.5C104.2 115.6 100.3 116.2 95.9002 117.7L96.3002 116.5C99.1003 106.2 100.5 95.6 100.7 93.9C101 91.3 101.3 88.9 99.5002 88.6C99.5002 88.6 101.5 85.3 98.6002 84.3C95.6002 83.3 87.5002 87.8 84.0002 96.8C80.5002 105.8 82.3002 111.4 85.1002 112C87.9002 112.7 92.4002 108.7 95.5002 101.3C95.6002 101.2 94.0002 110 91.6002 118.8C86.7002 121.4 81.5002 124.9 76.6002 129.7C65.6002 140.5 61.5002 148 64.9002 150.5C68.3002 153.1 81.3002 149.3 91.2002 130.5C92.0002 129 92.8002 127.2 93.5002 125.4C93.7002 124.8 93.1002 123.3 89.6002 125.1C89.2002 126.3 88.7002 127.5 88.3002 128.6C82.9002 141.4 71.9002 151.5 67.0002 149C64.4002 147.3 68.2002 139.6 78.1002 130.7C81.1002 128 86.1003 124.6 88.3002 123.4C93.1003 120.7 101.4 118.9 106.6 118.5C114.7 118.1 117.2 121.6 117.3 121.7C118.5 121.6 119.2 119.4 118.6 118.4C117.6 116.7 113.3 114.8 107 115.5ZM95.4002 97.5C91.6002 106.5 88.4002 108.3 87.3002 108C86.2002 107.7 85.8002 103.4 88.9002 97.5C92.8002 89.9 97.5002 90 97.5002 90C97.4002 91.5 96.7002 94.5 95.4002 97.5Z" fill="white"></path><path d="M63.3 86.2C62.8 85.7 62.1 85.3 61 85.3C60.7 85.3 60.3 85.3 59.9 85.4C55.8 86.1 50.6 89.1 45.3 93.2L45.5 92.5C45.6 91.9 45.8 91.3 45.9 90.9C46.9 86.9 47.3 84.3 46.2 84.2C44.5 84 42.2 87 40.2 94.5L39.7 96.6C39.6 96.7 39.5 96.8 39.3 96.9C37.1 98.9 30.1 105.7 29.1 106.9C28.7 107.3 28.5 107.8 28.5 108.2C28.5 108.4 28.6 108.7 28.7 108.9C28.9 109.1 29.1 109.2 29.3 109.2C29.7 109.2 30.1 109 30.5 108.5C31.5 107.4 35.9 102.8 38.9 100C36.5 114.9 37.3 119.8 38 123.5C38.7 127.2 40.8 129.7 43.4 129.5C45.3 129.3 46.5 127.6 46.5 127.5C45.7 127.8 44.8 128.2 43.6 127.7C41.8 126.9 41.7 122.8 42 115C42.2 109.6 43.5 102.1 44.6 96.7C44.7 96.6 44.8 96.5 45 96.4C50.6 91.9 56.2 89.6 58.2 88.9C60.8 88 62.3 87.9 63 87.9C63.4 87.9 63.5 87.9 63.6 87.9H64V87.5C64 87.2 63.8 86.7 63.3 86.2Z" fill="white"></path></g><defs><clipPath id="clip0_2582_7884"><rect width="154.5" height="215.6" fill="white"></rect></clipPath></defs></svg>