<svg xmlns="http://www.w3.org/2000/svg" viewBox="0 0 283.47 283.47"><defs><style>.cls-1{fill:#d71638;}.cls-2{fill:#fff;}</style></defs><g id="Layer_2" data-name="Layer 2"><g id="Layer_1-2" data-name="Layer 1"><rect class="cls-1" width="283.47" height="283.47"></rect><path class="cls-2" d="M204.86,42.5c8.31,7-1.91,28.37-11.53,41.93-17.27,24.32-31.5,33-41,31.78a40.21,40.21,0,0,0,3-4c8.86-13.59,12.18-27.79,9.66-45.53h0C174.57,57.44,197.91,36.67,204.86,42.5Z"></path><path class="cls-2" d="M165,66.68h0c-2,2-3.44,3.4-3.93,4C137.94,96.46,141.7,109.77,146,113.42a12,12,0,0,0,6.37,2.79,32.2,32.2,0,0,1-10.14,8.05c-3.21-6-8.57-13.21-17.08-21.67-1.14-1.13-6.57-6-13.43-11.31,1.16-27,14.6-67.06,25.77-67.62C148.13,23.12,161.66,46.28,165,66.68Z"></path><path class="cls-2" d="M142.21,124.26c6.5,12.18,4.17,19.43,1.32,22.16-8.65,8.29-26.71,3.27-51.32-27.42-10.9-13.6-22.9-35.38-14.64-43.17,5.35-5,22,6,34.13,15.45,0,.52,0,1,0,1.54-.84,15.22,1.89,31.24,16.39,34.1,3.07.6,8.28.2,13.82-2.48Z"></path><polygon class="cls-2" points="79.52 158.74 74.38 158.74 67.79 188.3 59.18 158.98 59.11 158.74 53.96 158.74 45.67 188.21 39.12 159 39.06 158.74 33.66 158.74 42.4 197.03 42.45 197.29 48.24 197.29 56.49 167.5 64.92 197.04 64.99 197.29 70.63 197.29 79.47 158.97 79.52 158.74"></polygon><path class="cls-2" d="M215,182.88a13.55,13.55,0,0,1-1.73,7.32,6.27,6.27,0,0,1-2.37,2.21,8,8,0,0,1-3.79.84,5.24,5.24,0,0,1-3.11-.91,5.51,5.51,0,0,1-1.54-1.66,10.71,10.71,0,0,1-1.37-3.63,20.26,20.26,0,0,1-.38-4,12.45,12.45,0,0,1,1.55-6.46,6,6,0,0,1,2.09-2.06,6.25,6.25,0,0,1,3.22-.79,7.47,7.47,0,0,1,3.43.75,6.55,6.55,0,0,1,3,3.32,12.52,12.52,0,0,1,1,5.09m5.18,7.63V158.57h-5.07V172a11.19,11.19,0,0,0-2.53-1.73A12.58,12.58,0,0,0,207,169a10.62,10.62,0,0,0-10.25,6.86,19.36,19.36,0,0,0-1.42,7.53,18,18,0,0,0,2.6,9.74,10.59,10.59,0,0,0,3.65,3.5A10.88,10.88,0,0,0,207,198a11.55,11.55,0,0,0,5.49-1.34,11.26,11.26,0,0,0,2.66-1.94l.1,2.52h5.2l-.12-2.09c-.09-1.43-.2-3.06-.2-4.62"></path><path class="cls-2" d="M94.41,192.32a7.52,7.52,0,0,1-7.06,0,7.93,7.93,0,0,1-3.23-3.79,13,13,0,0,1-1-5.09A12.06,12.06,0,0,1,85,176.83a7.19,7.19,0,0,1,2.4-2.27,7.52,7.52,0,0,1,7.06,0,7.88,7.88,0,0,1,3.23,3.79,12.83,12.83,0,0,1,1,5.09,12,12,0,0,1-1.87,6.6,7.22,7.22,0,0,1-2.4,2.28m2.31-22.1a14,14,0,0,0-11.68,0,12.23,12.23,0,0,0-5.53,5.55,16.91,16.91,0,0,0-1.76,7.67,16,16,0,0,0,3.16,9.86A11.75,11.75,0,0,0,85,196.66a14.06,14.06,0,0,0,11.68,0,12.25,12.25,0,0,0,5.53-5.56,16.9,16.9,0,0,0,1.76-7.66,16,16,0,0,0-3.16-9.87,11.68,11.68,0,0,0-4.13-3.35"></path><path class="cls-2" d="M127.22,183.59a12.16,12.16,0,0,1-1.86,6.6,7.24,7.24,0,0,1-9.47,2.28,7.92,7.92,0,0,1-3.22-3.79,13,13,0,0,1-1-5.09,12.28,12.28,0,0,1,1.88-6.6,7.11,7.11,0,0,1,2.4-2.28,7.52,7.52,0,0,1,7.06,0,7.94,7.94,0,0,1,3.22,3.8,12.81,12.81,0,0,1,1,5.08m-2-13.22a14,14,0,0,0-11.67,0,12.2,12.2,0,0,0-5.53,5.56,16.77,16.77,0,0,0-1.76,7.66,16,16,0,0,0,3.16,9.87,11.72,11.72,0,0,0,4.13,3.35,13.94,13.94,0,0,0,11.67,0,12.25,12.25,0,0,0,5.54-5.55,16.94,16.94,0,0,0,1.76-7.67,16,16,0,0,0-3.17-9.87,11.68,11.68,0,0,0-4.13-3.35"></path><path class="cls-2" d="M154.48,183a13.5,13.5,0,0,1-1.74,7.32,6.26,6.26,0,0,1-2.37,2.21,8,8,0,0,1-3.79.85,5.24,5.24,0,0,1-3.11-.91,5.74,5.74,0,0,1-1.54-1.66,10.91,10.91,0,0,1-1.37-3.63,20.55,20.55,0,0,1-.38-4,12.47,12.47,0,0,1,1.55-6.46,5.85,5.85,0,0,1,2.08-2.06,6.31,6.31,0,0,1,3.23-.79,7.57,7.57,0,0,1,3.43.74,6.7,6.7,0,0,1,3,3.33,12.51,12.51,0,0,1,1,5.08m5.17,7.63V158.68h-5.07v13.44a10.88,10.88,0,0,0-2.53-1.73,12.41,12.41,0,0,0-5.53-1.29,11.18,11.18,0,0,0-5.41,1.29,11,11,0,0,0-4.84,5.57,19.15,19.15,0,0,0-1.43,7.53,18,18,0,0,0,2.61,9.74,10.74,10.74,0,0,0,3.64,3.5,10.94,10.94,0,0,0,5.43,1.36,11.55,11.55,0,0,0,5.49-1.34,11.43,11.43,0,0,0,2.66-1.95l.1,2.53H160l-.11-1.8c-.1-1.53-.21-3.26-.21-4.92"></path><path class="cls-2" d="M179.86,181.91c-2.16-.74-4.09-1.22-5.82-1.65-1.12-.28-2.08-.52-2.9-.78a5.86,5.86,0,0,1-2.14-1,1.66,1.66,0,0,1-.43-.59,2,2,0,0,1-.16-.86,2.72,2.72,0,0,1,.37-1.41,3.32,3.32,0,0,1,1.74-1.29,8.28,8.28,0,0,1,2.81-.45,7.79,7.79,0,0,1,3.79.8,3.25,3.25,0,0,1,1.12,1,3.37,3.37,0,0,1,.53,1.58l.07.88h5.33l-.07-1a9.15,9.15,0,0,0-1.09-3.78,7.61,7.61,0,0,0-4-3.3,15.14,15.14,0,0,0-5.43-.88,13.67,13.67,0,0,0-7,1.72,7.35,7.35,0,0,0-2.54,2.54,7.43,7.43,0,0,0-1,3.83,6.78,6.78,0,0,0,.84,3.4,6.48,6.48,0,0,0,1.56,1.79A10.6,10.6,0,0,0,168.6,184a34,34,0,0,0,3.51,1l.76.16a23.88,23.88,0,0,1,4.72,1.33,4,4,0,0,1,1.5,1.1,2.67,2.67,0,0,1,.51,1.64,3.45,3.45,0,0,1-.47,1.82,4.29,4.29,0,0,1-2.13,1.71,8.77,8.77,0,0,1-3.26.59,8.86,8.86,0,0,1-4.31-.9,3.64,3.64,0,0,1-1.31-1.2,4.07,4.07,0,0,1-.59-1.93l-.06-.9h-5.28v1a8.44,8.44,0,0,0,1.06,4.05,8.66,8.66,0,0,0,4.28,3.59,14.13,14.13,0,0,0,5.46,1,14.82,14.82,0,0,0,8.08-2.18,8.66,8.66,0,0,0,2.79-2.93,8.33,8.33,0,0,0,1.07-4.2,7.06,7.06,0,0,0-1.39-4.24,7.66,7.66,0,0,0-3.69-2.63"></path><rect class="cls-2" x="187.29" y="158.75" width="5.59" height="5.75"></rect><rect class="cls-2" x="187.55" y="169.94" width="5.07" height="27.47"></rect><path class="cls-2" d="M231.17,176a6.39,6.39,0,0,1,2.15-1.67,6.92,6.92,0,0,1,3-.62,8.21,8.21,0,0,1,3.16.57,6.29,6.29,0,0,1,3,2.69,9.74,9.74,0,0,1,1.16,3.45H229.19a9.47,9.47,0,0,1,2-4.42m12.37,12a6.86,6.86,0,0,1-2.32,3.75A6.56,6.56,0,0,1,237,193.2a8.9,8.9,0,0,1-3.67-.71,6.67,6.67,0,0,1-3.26-3.22,11,11,0,0,1-1.06-4.15h20.09v-1c0-4.5-1-8.09-2.87-10.67a10.41,10.41,0,0,0-4.05-3.33,13.89,13.89,0,0,0-5.95-1.2,11.71,11.71,0,0,0-10.87,6.75,17.37,17.37,0,0,0-1.74,7.75,16.67,16.67,0,0,0,3,9.95,11,11,0,0,0,3.9,3.3,12.24,12.24,0,0,0,5.52,1.24,13.45,13.45,0,0,0,8.23-2.36,12.78,12.78,0,0,0,4.51-7.27l.09-.36Z"></path><polygon class="cls-2" points="67.61 231.79 85.59 231.79 85.59 226.79 67.61 226.79 67.61 215.24 86.5 215.24 86.5 210.24 61.8 210.24 61.8 249.29 86.92 249.29 86.92 244.29 67.61 244.29 67.61 231.79"></polygon><path class="cls-2" d="M111.54,223.13a11.19,11.19,0,0,0-6.37-1.85c-3.84,0-6.66,1.5-8.4,4.47l-.2-3.76h-5.5v.23c0,1.23.07,2.36.07,3.35v23.72h5.66V233a7.46,7.46,0,0,1,2.09-5.44,6.48,6.48,0,0,1,4.78-1.93,6.2,6.2,0,0,1,4.6,1.86,5.7,5.7,0,0,1,1.35,4.22v17.61h5.65V230.66C115.28,227.29,114,224.75,111.54,223.13Z"></path><path class="cls-2" d="M161.08,221.28c-4.18,0-7,1.51-8.25,4.49l-.09-3.78h-5.5v.23c.06,1.23.08,2.36.08,3.35v23.72H153V234.46c0-5.38,2.39-8,7.31-8a17.31,17.31,0,0,1,2.13.1l.25,0,0-5.32Z"></path><path class="cls-2" d="M184,225.05a9.76,9.76,0,0,0-8.2-3.77,11.63,11.63,0,0,0-8.87,3.66c-2.27,2.43-3.42,5.95-3.42,10.47a15.66,15.66,0,0,0,2.85,9.71c1.93,2.49,5,3.75,9,3.75s6.75-1.31,8.28-3.91c-.05,3.92-.42,6.6-1.1,8-.94,1.9-2.9,2.87-5.84,2.87-3.9,0-5.87-1.62-6-5v-.21h-5.81v.22c.06,3.26,1,5.61,2.87,7s4.82,2,8.87,2c4.57,0,7.88-1,9.83-3a8,8,0,0,0,2.27-4,39.21,39.21,0,0,0,.58-8.06V226.6q0-.87,0-2.4c0-1,0-1.68,0-2l0-.24h-5.34Zm-2.5,2.48c1.43,1.44,2.16,3.8,2.16,7,0,3.4-.63,6-1.87,7.72a6.55,6.55,0,0,1-5.68,2.53,6.06,6.06,0,0,1-5.12-2.43c-1.21-1.65-1.82-4.05-1.82-7.14,0-6.63,2.27-9.85,6.94-9.85A7.34,7.34,0,0,1,181.52,227.53Z"></path><polygon class="cls-2" points="214.85 221.99 206.73 242.38 198.3 222.12 198.24 221.99 192.15 221.99 203.48 248.87 199.32 259.32 205.02 259.32 209.19 248.53 220.81 222.3 220.95 221.99 214.85 221.99"></polygon><path class="cls-2" d="M126,228.18a6.42,6.42,0,0,1,2.15-1.68,6.92,6.92,0,0,1,3-.62,8.29,8.29,0,0,1,3.17.58,6.36,6.36,0,0,1,3,2.68,9.74,9.74,0,0,1,1.15,3.45H124a9.38,9.38,0,0,1,2-4.41m12.37,12a6.9,6.9,0,0,1-2.31,3.75,6.61,6.61,0,0,1-4.24,1.51,8.9,8.9,0,0,1-3.67-.7,6.75,6.75,0,0,1-3.26-3.22,11,11,0,0,1-1.06-4.16h20.09v-1c0-4.5-1-8.09-2.86-10.67a10.45,10.45,0,0,0-4.06-3.34,14,14,0,0,0-5.95-1.19,12.31,12.31,0,0,0-5.53,1.24,12.14,12.14,0,0,0-5.34,5.51,17.33,17.33,0,0,0-1.74,7.74,16.64,16.64,0,0,0,3,10,11.08,11.08,0,0,0,3.89,3.3,12.23,12.23,0,0,0,5.52,1.23,13.51,13.51,0,0,0,8.23-2.35,12.76,12.76,0,0,0,4.51-7.27l.09-.37Z"></path></g></g></svg>